<svg width="46" height="40" viewBox="0 0 46 40" fill="none" xmlns="http://www.w3.org/2000/svg">
<g filter="url(#filter0_d_1_3)">
<path d="M24.0391 3.04688C24.0911 3.15104 24.1172 3.51562 24.1172 4.14062C24.1432 4.76562 24.1432 5.52083 24.1172 6.40625C24.1172 7.29167 24.0911 8.24219 24.0391 9.25781C23.987 10.2474 23.9219 11.1849 23.8438 12.0703C23.7917 12.5651 23.7005 13.3073 23.5703 14.2969C23.4661 15.2865 23.3359 16.3802 23.1797 17.5781C23.0234 18.776 22.8542 20.013 22.6719 21.2891C22.5156 22.5391 22.3594 23.6979 22.2031 24.7656C22.0469 25.8073 21.9036 26.6797 21.7734 27.3828C21.6693 28.0859 21.5911 28.4635 21.5391 28.5156C21.4349 28.5938 21.2656 28.7891 21.0312 29.1016C20.7969 29.388 20.5365 29.6875 20.25 30C19.9896 30.2865 19.7422 30.5208 19.5078 30.7031C19.2734 30.8854 19.1172 30.9115 19.0391 30.7812C18.987 30.5208 18.9609 29.7135 18.9609 28.3594C18.9609 27.7865 18.9609 27.0703 18.9609 26.2109C18.987 25.3255 19.013 24.2578 19.0391 23.0078C19.0911 21.7578 19.1562 20.2995 19.2344 18.6328C19.3125 16.9661 19.4036 15.0391 19.5078 12.8516C18.987 14.6224 18.5182 16.1849 18.1016 17.5391C17.7109 18.8932 17.3594 20.0781 17.0469 21.0938C16.7604 22.0833 16.513 22.9297 16.3047 23.6328C16.0964 24.3099 15.9141 24.8698 15.7578 25.3125C15.4193 26.3542 15.1979 26.9661 15.0938 27.1484C14.9896 27.1745 14.8203 27.0964 14.5859 26.9141C14.3776 26.7318 14.1302 26.4714 13.8438 26.1328C13.5833 25.7682 13.3099 25.3385 13.0234 24.8438C12.763 24.349 12.5417 23.8021 12.3594 23.2031C12.1771 22.6562 11.9427 21.9271 11.6562 21.0156C11.3958 20.2344 11.0573 19.2188 10.6406 17.9688C10.224 16.6927 9.71615 15.1042 9.11719 13.2031C9.27344 15.3385 9.40365 17.2135 9.50781 18.8281C9.61198 20.4427 9.6901 21.849 9.74219 23.0469C9.82031 24.2448 9.8724 25.2604 9.89844 26.0938C9.95052 26.901 9.97656 27.5781 9.97656 28.125C10.0026 29.375 9.96354 30.0911 9.85938 30.2734C9.59896 30.2734 9.3125 30.1562 9 29.9219C8.71354 29.6615 8.42708 29.362 8.14062 29.0234C7.88021 28.6589 7.64583 28.3073 7.4375 27.9688C7.25521 27.6302 7.15104 27.3828 7.125 27.2266C7.09896 27.1224 7.02083 26.6406 6.89062 25.7812C6.76042 24.9219 6.60417 23.8281 6.42188 22.5C6.26562 21.1458 6.08333 19.6354 5.875 17.9688C5.69271 16.276 5.51042 14.5573 5.32812 12.8125C5.17188 11.0677 5.04167 9.375 4.9375 7.73438C4.83333 6.06771 4.78125 4.58333 4.78125 3.28125C4.78125 3.07292 5.04167 2.79948 5.5625 2.46094C6.08333 2.09635 6.66927 1.75781 7.32031 1.44531C7.9974 1.10677 8.6224 0.820312 9.19531 0.585938C9.76823 0.325521 10.1198 0.195312 10.25 0.195312C10.3542 0.195312 10.4583 0.494792 10.5625 1.09375C10.6927 1.69271 10.8359 2.44792 10.9922 3.35938C11.1484 4.27083 11.3177 5.28646 11.5 6.40625C11.6823 7.52604 11.8906 8.59375 12.125 9.60938C12.3073 10.651 12.5286 11.7318 12.7891 12.8516C12.9974 13.8151 13.2318 14.8828 13.4922 16.0547C13.7786 17.2005 14.0911 18.3203 14.4297 19.4141C14.7943 17.8255 15.1198 16.3932 15.4062 15.1172C15.7188 13.8151 15.9922 12.7083 16.2266 11.7969C16.513 10.7292 16.7604 9.77865 16.9688 8.94531C17.4375 6.91406 17.8932 5.3125 18.3359 4.14062C18.8047 2.96875 19.1042 2.27865 19.2344 2.07031C19.3125 1.96615 19.5859 1.9401 20.0547 1.99219C20.5495 2.04427 21.0833 2.13542 21.6562 2.26562C22.2292 2.36979 22.75 2.5 23.2188 2.65625C23.7135 2.8125 23.987 2.94271 24.0391 3.04688ZM41.5781 19.1016C41.6302 19.2057 41.6302 19.4922 41.5781 19.9609C41.526 20.4036 41.4349 20.8854 41.3047 21.4062C41.2005 21.9271 41.0833 22.4219 40.9531 22.8906C40.849 23.3333 40.7708 23.5938 40.7188 23.6719C40.5885 23.6719 40.4453 23.6719 40.2891 23.6719C40.1589 23.6458 40.0286 23.6328 39.8984 23.6328C39.7682 23.6328 39.625 23.6198 39.4688 23.5938C39.3906 24.6875 39.2995 25.7161 39.1953 26.6797C39.0911 27.6172 38.987 28.4245 38.8828 29.1016C38.7786 29.7786 38.6875 30.3125 38.6094 30.7031C38.5312 31.1198 38.4531 31.3281 38.375 31.3281C38.1667 31.3802 37.9323 31.2891 37.6719 31.0547C37.4375 30.8464 37.2031 30.5859 36.9688 30.2734C36.7344 29.9609 36.526 29.6354 36.3438 29.2969C36.1615 28.9323 36.0573 28.6198 36.0312 28.3594C36.0052 27.8385 35.9792 27.2917 35.9531 26.7188C35.9531 26.1198 35.9401 25.5729 35.9141 25.0781C35.888 24.5052 35.875 23.9323 35.875 23.3594C35.3802 23.3073 34.8984 23.2682 34.4297 23.2422C33.9609 23.1901 33.4922 23.138 33.0234 23.0859C32.7891 23.0339 32.5547 23.0078 32.3203 23.0078C32.0859 22.9818 31.8646 22.9427 31.6562 22.8906C31.6042 24.0885 31.5521 25.1953 31.5 26.2109C31.4479 27.2266 31.3828 28.112 31.3047 28.8672C31.2526 29.6224 31.1875 30.2083 31.1094 30.625C31.0573 31.0677 30.9922 31.3021 30.9141 31.3281C30.7057 31.3542 30.4583 31.263 30.1719 31.0547C29.8854 30.8464 29.612 30.5859 29.3516 30.2734C29.1172 29.9609 28.8958 29.6354 28.6875 29.2969C28.5052 28.9583 28.401 28.6589 28.375 28.3984C28.3229 27.7214 28.2708 27.0312 28.2188 26.3281C28.1667 25.599 28.1146 24.9349 28.0625 24.3359C28.0104 23.6328 27.9583 22.9427 27.9062 22.2656C27.6979 22.2396 27.4896 22.2005 27.2812 22.1484C27.099 22.0964 26.9036 22.0573 26.6953 22.0312C26.513 22.0052 26.3438 21.9661 26.1875 21.9141C26.0833 21.862 25.9401 21.7578 25.7578 21.6016C25.5755 21.4193 25.3932 21.224 25.2109 21.0156C25.0286 20.8073 24.8724 20.612 24.7422 20.4297C24.612 20.2214 24.5469 20.0651 24.5469 19.9609C24.5469 19.9089 24.8333 19.8438 25.4062 19.7656C26.0052 19.6875 26.7865 19.6224 27.75 19.5703C27.6458 18.0599 27.5417 16.5234 27.4375 14.9609C27.3594 13.3724 27.2943 11.901 27.2422 10.5469C27.1901 9.16667 27.1641 7.96875 27.1641 6.95312C27.1641 5.91146 27.2031 5.19531 27.2812 4.80469C27.3854 4.25781 27.6328 3.73698 28.0234 3.24219C28.4401 2.72135 28.8828 2.26562 29.3516 1.875C29.8203 1.48438 30.263 1.1849 30.6797 0.976562C31.0964 0.768229 31.3698 0.703125 31.5 0.78125C31.5781 0.859375 31.6432 1.17188 31.6953 1.71875C31.7734 2.26562 31.8255 2.99479 31.8516 3.90625C31.9036 4.81771 31.9297 5.8724 31.9297 7.07031C31.9297 8.26823 31.9297 9.54427 31.9297 10.8984C31.9297 12.2266 31.9036 13.6198 31.8516 15.0781C31.8255 16.5104 31.7995 17.9297 31.7734 19.3359C32.4505 19.2839 33.1146 19.2448 33.7656 19.2188C34.4427 19.1927 35.1068 19.1536 35.7578 19.1016C35.7318 17.6172 35.7057 16.1068 35.6797 14.5703C35.6797 13.0339 35.6797 11.6016 35.6797 10.2734C35.6797 8.94531 35.7057 7.78646 35.7578 6.79688C35.8099 5.80729 35.875 5.11719 35.9531 4.72656C36.0833 4.17969 36.3568 3.65885 36.7734 3.16406C37.2161 2.66927 37.6719 2.23958 38.1406 1.875C38.6354 1.48438 39.0911 1.19792 39.5078 1.01562C39.9505 0.833333 40.237 0.794271 40.3672 0.898438C40.4974 0.976562 40.5755 1.58854 40.6016 2.73438C40.6276 3.85417 40.6016 5.27344 40.5234 6.99219C40.4714 8.71094 40.3802 10.638 40.25 12.7734C40.1458 14.8828 40.0156 16.9661 39.8594 19.0234C40.901 19.0234 41.474 19.0495 41.5781 19.1016Z" fill="#FFDD00"/>
</g>
<defs>
<filter id="filter0_d_1_3" x="0.78125" y="0.195312" width="44.875" height="39.2109" filterUnits="userSpaceOnUse" color-interpolation-filters="sRGB">
<feFlood flood-opacity="0" result="BackgroundImageFix"/>
<feColorMatrix in="SourceAlpha" type="matrix" values="0 0 0 0 0 0 0 0 0 0 0 0 0 0 0 0 0 0 127 0" result="hardAlpha"/>
<feOffset dy="4"/>
<feGaussianBlur stdDeviation="2"/>
<feComposite in2="hardAlpha" operator="out"/>
<feColorMatrix type="matrix" values="0 0 0 0 0 0 0 0 0 0 0 0 0 0 0 0 0 0 0.25 0"/>
<feBlend mode="normal" in2="BackgroundImageFix" result="effect1_dropShadow_1_3"/>
<feBlend mode="normal" in="SourceGraphic" in2="effect1_dropShadow_1_3" result="shape"/>
</filter>
</defs>
</svg>
