<svg width="45" height="44" viewBox="0 0 45 44" fill="none" xmlns="http://www.w3.org/2000/svg">
<rect x="0.5" y="0.5" width="44" height="43" stroke="#FFDD00"/>
<path d="M24.0391 12.0469C24.0911 12.151 24.1172 12.5156 24.1172 13.1406C24.1432 13.7656 24.1432 14.5208 24.1172 15.4062C24.1172 16.2917 24.0911 17.2422 24.0391 18.2578C23.987 19.2474 23.9219 20.1849 23.8438 21.0703C23.7917 21.5651 23.7005 22.3073 23.5703 23.2969C23.4661 24.2865 23.3359 25.3802 23.1797 26.5781C23.0234 27.776 22.8542 29.013 22.6719 30.2891C22.5156 31.5391 22.3594 32.6979 22.2031 33.7656C22.0469 34.8073 21.9036 35.6797 21.7734 36.3828C21.6693 37.0859 21.5911 37.4635 21.5391 37.5156C21.4349 37.5938 21.2656 37.7891 21.0312 38.1016C20.7969 38.388 20.5365 38.6875 20.25 39C19.9896 39.2865 19.7422 39.5208 19.5078 39.7031C19.2734 39.8854 19.1172 39.9115 19.0391 39.7812C18.987 39.5208 18.9609 38.7135 18.9609 37.3594C18.9609 36.7865 18.9609 36.0703 18.9609 35.2109C18.987 34.3255 19.013 33.2578 19.0391 32.0078C19.0911 30.7578 19.1562 29.2995 19.2344 27.6328C19.3125 25.9661 19.4036 24.0391 19.5078 21.8516C18.987 23.6224 18.5182 25.1849 18.1016 26.5391C17.7109 27.8932 17.3594 29.0781 17.0469 30.0938C16.7604 31.0833 16.513 31.9297 16.3047 32.6328C16.0964 33.3099 15.9141 33.8698 15.7578 34.3125C15.4193 35.3542 15.1979 35.9661 15.0938 36.1484C14.9896 36.1745 14.8203 36.0964 14.5859 35.9141C14.3776 35.7318 14.1302 35.4714 13.8438 35.1328C13.5833 34.7682 13.3099 34.3385 13.0234 33.8438C12.763 33.349 12.5417 32.8021 12.3594 32.2031C12.1771 31.6562 11.9427 30.9271 11.6562 30.0156C11.3958 29.2344 11.0573 28.2188 10.6406 26.9688C10.224 25.6927 9.71615 24.1042 9.11719 22.2031C9.27344 24.3385 9.40365 26.2135 9.50781 27.8281C9.61198 29.4427 9.6901 30.849 9.74219 32.0469C9.82031 33.2448 9.8724 34.2604 9.89844 35.0938C9.95052 35.901 9.97656 36.5781 9.97656 37.125C10.0026 38.375 9.96354 39.0911 9.85938 39.2734C9.59896 39.2734 9.3125 39.1562 9 38.9219C8.71354 38.6615 8.42708 38.362 8.14062 38.0234C7.88021 37.6589 7.64583 37.3073 7.4375 36.9688C7.25521 36.6302 7.15104 36.3828 7.125 36.2266C7.09896 36.1224 7.02083 35.6406 6.89062 34.7812C6.76042 33.9219 6.60417 32.8281 6.42188 31.5C6.26562 30.1458 6.08333 28.6354 5.875 26.9688C5.69271 25.276 5.51042 23.5573 5.32812 21.8125C5.17188 20.0677 5.04167 18.375 4.9375 16.7344C4.83333 15.0677 4.78125 13.5833 4.78125 12.2812C4.78125 12.0729 5.04167 11.7995 5.5625 11.4609C6.08333 11.0964 6.66927 10.7578 7.32031 10.4453C7.9974 10.1068 8.6224 9.82031 9.19531 9.58594C9.76823 9.32552 10.1198 9.19531 10.25 9.19531C10.3542 9.19531 10.4583 9.49479 10.5625 10.0938C10.6927 10.6927 10.8359 11.4479 10.9922 12.3594C11.1484 13.2708 11.3177 14.2865 11.5 15.4062C11.6823 16.526 11.8906 17.5938 12.125 18.6094C12.3073 19.651 12.5286 20.7318 12.7891 21.8516C12.9974 22.8151 13.2318 23.8828 13.4922 25.0547C13.7786 26.2005 14.0911 27.3203 14.4297 28.4141C14.7943 26.8255 15.1198 25.3932 15.4062 24.1172C15.7188 22.8151 15.9922 21.7083 16.2266 20.7969C16.513 19.7292 16.7604 18.7786 16.9688 17.9453C17.4375 15.9141 17.8932 14.3125 18.3359 13.1406C18.8047 11.9688 19.1042 11.2786 19.2344 11.0703C19.3125 10.9661 19.5859 10.9401 20.0547 10.9922C20.5495 11.0443 21.0833 11.1354 21.6562 11.2656C22.2292 11.3698 22.75 11.5 23.2188 11.6562C23.7135 11.8125 23.987 11.9427 24.0391 12.0469ZM41.5781 28.1016C41.6302 28.2057 41.6302 28.4922 41.5781 28.9609C41.526 29.4036 41.4349 29.8854 41.3047 30.4062C41.2005 30.9271 41.0833 31.4219 40.9531 31.8906C40.849 32.3333 40.7708 32.5938 40.7188 32.6719C40.5885 32.6719 40.4453 32.6719 40.2891 32.6719C40.1589 32.6458 40.0286 32.6328 39.8984 32.6328C39.7682 32.6328 39.625 32.6198 39.4688 32.5938C39.3906 33.6875 39.2995 34.7161 39.1953 35.6797C39.0911 36.6172 38.987 37.4245 38.8828 38.1016C38.7786 38.7786 38.6875 39.3125 38.6094 39.7031C38.5312 40.1198 38.4531 40.3281 38.375 40.3281C38.1667 40.3802 37.9323 40.2891 37.6719 40.0547C37.4375 39.8464 37.2031 39.5859 36.9688 39.2734C36.7344 38.9609 36.526 38.6354 36.3438 38.2969C36.1615 37.9323 36.0573 37.6198 36.0312 37.3594C36.0052 36.8385 35.9792 36.2917 35.9531 35.7188C35.9531 35.1198 35.9401 34.5729 35.9141 34.0781C35.888 33.5052 35.875 32.9323 35.875 32.3594C35.3802 32.3073 34.8984 32.2682 34.4297 32.2422C33.9609 32.1901 33.4922 32.138 33.0234 32.0859C32.7891 32.0339 32.5547 32.0078 32.3203 32.0078C32.0859 31.9818 31.8646 31.9427 31.6562 31.8906C31.6042 33.0885 31.5521 34.1953 31.5 35.2109C31.4479 36.2266 31.3828 37.112 31.3047 37.8672C31.2526 38.6224 31.1875 39.2083 31.1094 39.625C31.0573 40.0677 30.9922 40.3021 30.9141 40.3281C30.7057 40.3542 30.4583 40.263 30.1719 40.0547C29.8854 39.8464 29.612 39.5859 29.3516 39.2734C29.1172 38.9609 28.8958 38.6354 28.6875 38.2969C28.5052 37.9583 28.401 37.6589 28.375 37.3984C28.3229 36.7214 28.2708 36.0312 28.2188 35.3281C28.1667 34.599 28.1146 33.9349 28.0625 33.3359C28.0104 32.6328 27.9583 31.9427 27.9062 31.2656C27.6979 31.2396 27.4896 31.2005 27.2812 31.1484C27.099 31.0964 26.9036 31.0573 26.6953 31.0312C26.513 31.0052 26.3438 30.9661 26.1875 30.9141C26.0833 30.862 25.9401 30.7578 25.7578 30.6016C25.5755 30.4193 25.3932 30.224 25.2109 30.0156C25.0286 29.8073 24.8724 29.612 24.7422 29.4297C24.612 29.2214 24.5469 29.0651 24.5469 28.9609C24.5469 28.9089 24.8333 28.8438 25.4062 28.7656C26.0052 28.6875 26.7865 28.6224 27.75 28.5703C27.6458 27.0599 27.5417 25.5234 27.4375 23.9609C27.3594 22.3724 27.2943 20.901 27.2422 19.5469C27.1901 18.1667 27.1641 16.9688 27.1641 15.9531C27.1641 14.9115 27.2031 14.1953 27.2812 13.8047C27.3854 13.2578 27.6328 12.737 28.0234 12.2422C28.4401 11.7214 28.8828 11.2656 29.3516 10.875C29.8203 10.4844 30.263 10.1849 30.6797 9.97656C31.0964 9.76823 31.3698 9.70312 31.5 9.78125C31.5781 9.85938 31.6432 10.1719 31.6953 10.7188C31.7734 11.2656 31.8255 11.9948 31.8516 12.9062C31.9036 13.8177 31.9297 14.8724 31.9297 16.0703C31.9297 17.2682 31.9297 18.5443 31.9297 19.8984C31.9297 21.2266 31.9036 22.6198 31.8516 24.0781C31.8255 25.5104 31.7995 26.9297 31.7734 28.3359C32.4505 28.2839 33.1146 28.2448 33.7656 28.2188C34.4427 28.1927 35.1068 28.1536 35.7578 28.1016C35.7318 26.6172 35.7057 25.1068 35.6797 23.5703C35.6797 22.0339 35.6797 20.6016 35.6797 19.2734C35.6797 17.9453 35.7057 16.7865 35.7578 15.7969C35.8099 14.8073 35.875 14.1172 35.9531 13.7266C36.0833 13.1797 36.3568 12.6589 36.7734 12.1641C37.2161 11.6693 37.6719 11.2396 38.1406 10.875C38.6354 10.4844 39.0911 10.1979 39.5078 10.0156C39.9505 9.83333 40.237 9.79427 40.3672 9.89844C40.4974 9.97656 40.5755 10.5885 40.6016 11.7344C40.6276 12.8542 40.6016 14.2734 40.5234 15.9922C40.4714 17.7109 40.3802 19.638 40.25 21.7734C40.1458 23.8828 40.0156 25.9661 39.8594 28.0234C40.901 28.0234 41.474 28.0495 41.5781 28.1016Z" fill="#FFDD00"/>
</svg>
